<svg width="400" height="220" viewBox="0 0 400 220" xmlns="http://www.w3.org/2000/svg" fill="#e0e0e0">
  <rect width="400" height="220" />
  <g transform="translate(200, 110)" fill="#bdbdbd">
    <path d="M168 40H72c-13.2 0-24 10.8-24 24v96c0 13.2 10.8 24 24 24h96c13.2 0 24-10.8 24-24V64c0-13.2-10.8-24-24-24zm-4.8 107.2L120 124.8l-26.4 31.2c-4.8 4.8-12 4.8-16.8 0l-26.4-31.2-38.4 45.6c-4.8 4.8-12 4.8-16.8 0-4.8-4.8-4.8-12 0-16.8l45.6-52.8c4.8-4.8 12-4.8 16.8 0l26.4 31.2 38.4-45.6c4.8-4.8 12-4.8 16.8 0 4.8 4.8 4.8 12 0 16.8L163.2 147.2zM84 96c8.837 0 16-7.163 16-16s-7.163-16-16-16-16 7.163-16 16 7.163 16 16 16z"/>
  </g>
</svg> 